<?xml version="1.0"?>
<svg xmlns="http://www.w3.org/2000/svg" viewBox="0 0 80 80">
    <path style="line-height:normal;text-indent:0;text-align:start;text-decoration-line:none;text-decoration-style:solid;text-decoration-color:#000;text-transform:none;block-progression:tb;isolation:auto;mix-blend-mode:normal" d="M 32.470703 6.9804688 L 15.960938 16.177734 L 6.9804688 32.816406 L 8.3808594 51.617188 L 19.724609 66.613281 L 37.404297 73.037109 L 55.806641 68.851562 L 69.087891 55.388672 L 73.039062 36.921875 L 66.400391 19.308594 L 66.162109 19.132812 L 51.275391 8.1464844 L 32.470703 6.9804688 z M 32.933594 9.0136719 L 47.220703 9.8984375 L 47.054688 10.119141 L 47.306641 10.978516 L 48.146484 11.291016 L 48.486328 11.191406 L 48.574219 11.146484 L 49.111328 10.429688 L 48.988281 10.007812 L 50.5625 10.105469 L 51.832031 11.042969 L 51.710938 11.099609 L 51.529297 11.976562 L 51.677734 12.296875 L 51.736328 12.378906 L 52.525391 12.800781 L 53.337891 12.421875 L 53.386719 12.189453 L 64.736328 20.566406 L 70.960938 37.078125 L 68.087891 50.511719 L 68.023438 50.425781 L 67.128906 50.429688 L 66.59375 51.148438 L 66.595703 51.501953 L 66.613281 51.599609 L 67.152344 52.316406 L 67.701172 52.314453 L 67.255859 54.398438 L 54.792969 67.03125 L 53.767578 67.263672 L 53.830078 67.048828 L 53.289062 66.333984 L 52.951172 66.236328 L 52.851562 66.226562 L 52.013672 66.542969 L 51.763672 67.402344 L 51.96875 67.673828 L 38.775391 70.673828 L 38.826172 70.589844 L 38.863281 70.496094 L 38.775391 69.605469 L 38.007812 69.140625 L 37.177734 69.478516 L 36.996094 69.779297 L 36.958984 69.873047 L 37.046875 70.763672 L 37.115234 70.804688 L 26.830078 67.066406 L 26.925781 67.029297 L 27.164062 66.166016 L 26.615234 65.458984 L 26.275391 65.363281 L 26.175781 65.355469 L 25.341797 65.679688 L 25.130859 66.449219 L 21.771484 65.228516 L 21.771484 65.226562 L 21.306641 64.460938 L 20.548828 64.388672 L 12.660156 53.958984 L 13.185547 53.238281 L 12.919922 52.380859 L 12.634766 52.173828 L 12.544922 52.130859 L 11.648438 52.142578 L 11.470703 52.386719 L 10.332031 50.880859 L 10.296875 50.416016 L 11.164062 50.210938 L 11.390625 49.941406 L 11.439453 49.853516 L 11.488281 48.958984 L 10.800781 48.384766 L 10.158203 48.537109 L 9.203125 35.708984 L 9.90625 35.298828 L 10.009766 34.408203 L 9.8320312 34.103516 L 9.7675781 34.027344 L 9.0546875 33.726562 L 9.0195312 33.25 L 16.947266 18.564453 L 16.945312 19.03125 L 17.15625 19.3125 L 17.228516 19.380859 L 18.087891 19.636719 L 18.806641 19.101562 L 18.808594 18.207031 L 18.597656 17.923828 L 18.525391 17.855469 L 17.666016 17.599609 L 17.333984 17.847656 L 17.445312 17.640625 L 32.933594 9.0136719 z M 34.923828 9.8066406 L 34.34375 10.490234 L 34.544922 11.363281 L 34.814453 11.591797 L 34.900391 11.640625 L 35.794922 11.695312 L 36.375 11.011719 L 36.173828 10.138672 L 35.904297 9.9121094 L 35.818359 9.8613281 L 34.923828 9.8066406 z M 44.351562 11.091797 L 44.013672 11.191406 L 43.923828 11.236328 L 43.386719 11.953125 L 43.640625 12.8125 L 44.480469 13.125 L 44.818359 13.025391 L 44.908203 12.980469 L 45.445312 12.261719 L 45.191406 11.402344 L 44.351562 11.091797 z M 40 12 A 2 2 0 0 0 38 14 A 2 2 0 0 0 40 16 A 2 2 0 0 0 42 14 A 2 2 0 0 0 40 12 z M 34.294922 13.597656 L 33.941406 13.599609 L 33.84375 13.617188 L 33.126953 14.15625 L 33.130859 15.050781 L 33.849609 15.585938 L 34.201172 15.583984 L 34.300781 15.566406 L 35.015625 15.029297 L 35.013672 14.132812 L 34.294922 13.597656 z M 54.886719 14.070312 L 54.074219 14.449219 L 53.892578 15.326172 L 54.042969 15.646484 L 54.099609 15.728516 L 54.890625 16.150391 L 55.701172 15.771484 L 55.882812 14.894531 L 55.734375 14.574219 L 55.675781 14.492188 L 54.886719 14.070312 z M 30.259766 14.332031 L 29.908203 14.333984 L 29.810547 14.351562 L 29.09375 14.890625 L 29.095703 15.787109 L 29.816406 16.320312 L 30.167969 16.320312 L 30.265625 16.300781 L 30.982422 15.763672 L 30.980469 14.867188 L 30.259766 14.332031 z M 25.875 15.068359 L 25.775391 15.085938 L 25.060547 15.625 L 25.0625 16.521484 L 25.78125 17.054688 L 26.134766 17.054688 L 26.232422 17.035156 L 26.949219 16.498047 L 26.947266 15.601562 L 26.226562 15.068359 L 25.875 15.068359 z M 21.841797 15.802734 L 21.742188 15.820312 L 21.025391 16.359375 L 21.029297 17.255859 L 21.748047 17.789062 L 22.101562 17.789062 L 22.199219 17.771484 L 22.916016 17.232422 L 22.912109 16.335938 L 22.193359 15.802734 L 21.841797 15.802734 z M 46.548828 16.279297 L 45.654297 16.322266 L 45.152344 17.064453 L 45.447266 17.910156 L 45.740234 18.107422 L 45.832031 18.148438 L 46.726562 18.105469 L 47.226562 17.361328 L 46.931641 16.515625 L 46.640625 16.318359 L 46.548828 16.279297 z M 36.570312 17.007812 L 36.279297 17.207031 L 36.207031 17.277344 L 35.919922 18.125 L 36.425781 18.865234 L 37.320312 18.902344 L 37.611328 18.703125 L 37.683594 18.632812 L 37.972656 17.785156 L 37.464844 17.044922 L 36.570312 17.007812 z M 57.25 17.419922 L 56.439453 17.798828 L 56.257812 18.675781 L 56.40625 18.996094 L 56.464844 19.078125 L 57.253906 19.5 L 58.066406 19.121094 L 58.248047 18.244141 L 58.097656 17.923828 L 58.041016 17.841797 L 57.25 17.419922 z M 50.298828 17.9375 L 49.402344 17.980469 L 48.902344 18.722656 L 49.197266 19.568359 L 49.490234 19.765625 L 49.580078 19.806641 L 50.476562 19.763672 L 50.976562 19.019531 L 50.681641 18.173828 L 50.390625 17.976562 L 50.298828 17.9375 z M 42.210938 19.263672 L 41.320312 19.353516 L 40.857422 20.121094 L 40.892578 20.470703 L 40.919922 20.568359 L 41.525391 21.228516 L 42.417969 21.138672 L 42.878906 20.371094 L 42.84375 20.021484 L 42.816406 19.923828 L 42.210938 19.263672 z M 54.048828 19.595703 L 53.152344 19.638672 L 52.652344 20.380859 L 52.947266 21.226562 L 53.238281 21.423828 L 53.330078 21.464844 L 54.224609 21.421875 L 54.726562 20.677734 L 54.431641 19.832031 L 54.138672 19.634766 L 54.048828 19.595703 z M 33.648438 19.884766 L 33.359375 20.085938 L 33.287109 20.154297 L 32.998047 21.003906 L 33.503906 21.742188 L 34.400391 21.779297 L 34.691406 21.580078 L 34.761719 21.509766 L 35.050781 20.662109 L 34.544922 19.921875 L 33.648438 19.884766 z M 63.566406 20.117188 L 63.228516 20.216797 L 63.138672 20.261719 L 62.601562 20.980469 L 62.855469 21.839844 L 63.695312 22.150391 L 64.033203 22.050781 L 64.123047 22.005859 L 64.660156 21.289062 L 64.40625 20.429688 L 63.566406 20.117188 z M 20.654297 20.40625 L 19.935547 20.939453 L 19.933594 21.835938 L 20.144531 22.119141 L 20.21875 22.1875 L 21.076172 22.443359 L 21.794922 21.908203 L 21.796875 21.011719 L 21.585938 20.728516 L 21.513672 20.660156 L 20.654297 20.40625 z M 60 21 A 2 2 0 0 0 58 23 A 2 2 0 0 0 60 25 A 2 2 0 0 0 62 23 A 2 2 0 0 0 60 21 z M 16.386719 22.291016 L 15.683594 22.84375 L 15.589844 23.183594 L 15.582031 23.283203 L 15.912109 24.115234 L 16.777344 24.349609 L 17.482422 23.796875 L 17.574219 23.457031 L 17.583984 23.357422 L 17.251953 22.523438 L 16.386719 22.291016 z M 30.728516 22.763672 L 30.4375 22.962891 L 30.367188 23.033203 L 30.078125 23.880859 L 30.583984 24.619141 L 31.478516 24.65625 L 31.769531 24.457031 L 31.841797 24.386719 L 32.130859 23.539062 L 31.623047 22.798828 L 30.728516 22.763672 z M 43.332031 23.207031 L 42.441406 23.296875 L 41.978516 24.064453 L 42.013672 24.416016 L 42.041016 24.511719 L 42.646484 25.171875 L 43.539062 25.082031 L 44 24.314453 L 43.964844 23.964844 L 43.9375 23.869141 L 43.332031 23.207031 z M 23.644531 23.210938 L 22.925781 23.746094 L 22.923828 24.642578 L 23.134766 24.925781 L 23.144531 24.935547 L 24.003906 25.191406 L 24.722656 24.65625 L 24.724609 23.759766 L 24.513672 23.476562 L 24.503906 23.466797 L 23.644531 23.210938 z M 28 25 A 2 2 0 0 0 26 27 A 2 2 0 0 0 28 29 A 2 2 0 0 0 30 27 A 2 2 0 0 0 28 25 z M 55.931641 25.357422 L 55.617188 25.515625 L 55.537109 25.576172 L 55.140625 26.378906 L 55.544922 27.177734 L 56.427734 27.332031 L 56.742188 27.171875 L 56.822266 27.111328 L 57.220703 26.308594 L 56.814453 25.509766 L 55.931641 25.357422 z M 61.578125 26.111328 L 60.6875 26.220703 L 60.244141 27 L 60.287109 27.349609 L 60.316406 27.445312 L 60.935547 28.091797 L 61.826172 27.982422 L 62.269531 27.203125 L 62.226562 26.853516 L 62.197266 26.757812 L 61.578125 26.111328 z M 16.033203 26.375 L 15.328125 26.927734 L 15.236328 27.267578 L 15.228516 27.367188 L 15.558594 28.201172 L 16.423828 28.433594 L 17.128906 27.880859 L 17.220703 27.541016 L 17.228516 27.441406 L 16.898438 26.607422 L 16.033203 26.375 z M 44.455078 27.150391 L 43.5625 27.240234 L 43.101562 28.007812 L 43.136719 28.359375 L 43.164062 28.455078 L 43.767578 29.115234 L 44.660156 29.027344 L 45.121094 28.257812 L 45.085938 27.908203 L 45.058594 27.8125 L 44.455078 27.150391 z M 52.660156 27.826172 L 52.345703 27.986328 L 52.265625 28.046875 L 51.867188 28.849609 L 52.273438 29.648438 L 53.15625 29.802734 L 53.470703 29.642578 L 53.550781 29.582031 L 53.947266 28.779297 L 53.542969 27.980469 L 52.660156 27.826172 z M 33.005859 28.078125 L 32.115234 28.164062 L 31.648438 28.929688 L 31.984375 29.759766 L 32.285156 29.943359 L 32.378906 29.980469 L 33.269531 29.894531 L 33.736328 29.128906 L 33.400391 28.296875 L 33.099609 28.115234 L 33.005859 28.078125 z M 36.830078 29.556641 L 35.939453 29.642578 L 35.472656 30.408203 L 35.808594 31.240234 L 36.109375 31.421875 L 36.203125 31.458984 L 37.09375 31.373047 L 37.560547 30.607422 L 37.224609 29.777344 L 36.923828 29.59375 L 36.830078 29.556641 z M 62.787109 30.029297 L 61.898438 30.138672 L 61.453125 30.916016 L 61.496094 31.265625 L 61.525391 31.361328 L 62.146484 32.009766 L 63.035156 31.898438 L 63.480469 31.121094 L 63.4375 30.771484 L 63.408203 30.675781 L 62.787109 30.029297 z M 49.386719 30.296875 L 49.074219 30.457031 L 48.994141 30.517578 L 48.595703 31.320312 L 49.001953 32.119141 L 49.884766 32.273438 L 50.199219 32.113281 L 50.279297 32.052734 L 50.675781 31.25 L 50.269531 30.451172 L 49.386719 30.296875 z M 24.988281 30.337891 L 24.09375 30.392578 L 23.824219 30.619141 L 23.759766 30.697266 L 23.558594 31.570312 L 24.136719 32.253906 L 25.03125 32.201172 L 25.300781 31.972656 L 25.363281 31.896484 L 25.566406 31.023438 L 24.988281 30.337891 z M 15.677734 30.458984 L 14.974609 31.011719 L 14.880859 31.353516 L 14.873047 31.453125 L 15.203125 32.285156 L 16.068359 32.519531 L 16.773438 31.964844 L 16.865234 31.625 L 16.875 31.525391 L 16.542969 30.693359 L 15.677734 30.458984 z M 40.654297 31.037109 L 39.761719 31.121094 L 39.296875 31.886719 L 39.632812 32.71875 L 39.933594 32.902344 L 40.025391 32.9375 L 40.917969 32.851562 L 41.382812 32.085938 L 41.048828 31.255859 L 40.748047 31.072266 L 40.654297 31.037109 z M 28.320312 31.162109 L 27.708984 31.816406 L 27.669922 32.167969 L 27.675781 32.267578 L 28.128906 33.039062 L 29.019531 33.138672 L 29.632812 32.484375 L 29.671875 32.134766 L 29.664062 32.035156 L 29.210938 31.261719 L 28.320312 31.162109 z M 46 32 A 2 2 0 0 0 44 34 A 2 2 0 0 0 46 36 A 2 2 0 0 0 48 34 A 2 2 0 0 0 46 32 z M 22.371094 33.494141 L 21.476562 33.548828 L 21.207031 33.775391 L 21.142578 33.853516 L 20.941406 34.726562 L 21.519531 35.410156 L 22.414062 35.357422 L 22.683594 35.128906 L 22.746094 35.052734 L 22.949219 34.179688 L 22.371094 33.494141 z M 63.998047 33.947266 L 63.109375 34.056641 L 62.664062 34.833984 L 62.707031 35.183594 L 62.736328 35.279297 L 63.357422 35.925781 L 64.246094 35.816406 L 64.691406 35.039062 L 64.646484 34.689453 L 64.617188 34.59375 L 63.998047 33.947266 z M 15.324219 34.544922 L 14.619141 35.097656 L 14.527344 35.4375 L 14.519531 35.537109 L 14.849609 36.369141 L 15.714844 36.603516 L 16.419922 36.050781 L 16.511719 35.710938 L 16.519531 35.611328 L 16.189453 34.777344 L 15.324219 34.544922 z M 51.951172 34.982422 L 51.072266 35.160156 L 50.689453 35.970703 L 51.111328 36.761719 L 51.429688 36.912109 L 51.525391 36.9375 L 52.404297 36.759766 L 52.787109 35.949219 L 52.365234 35.158203 L 52.046875 35.007812 L 51.951172 34.982422 z M 28.591797 35.253906 L 27.978516 35.908203 L 27.939453 36.257812 L 27.947266 36.357422 L 28.400391 37.130859 L 29.291016 37.230469 L 29.902344 36.576172 L 29.941406 36.226562 L 29.935547 36.126953 L 29.482422 35.353516 L 28.591797 35.253906 z M 55.908203 36.050781 L 55.03125 36.228516 L 54.648438 37.039062 L 55.068359 37.830078 L 55.386719 37.980469 L 55.484375 38.007812 L 56.361328 37.828125 L 56.744141 37.017578 L 56.324219 36.226562 L 56.005859 36.076172 L 55.908203 36.050781 z M 19.753906 36.650391 L 18.859375 36.705078 L 18.589844 36.931641 L 18.527344 37.009766 L 18.324219 37.882812 L 18.902344 38.566406 L 19.796875 38.513672 L 20.066406 38.285156 L 20.128906 38.208984 L 20.332031 37.335938 L 19.753906 36.650391 z M 41.994141 36.689453 L 41.703125 36.888672 L 41.632812 36.957031 L 41.341797 37.804688 L 41.847656 38.544922 L 42.742188 38.583984 L 43.033203 38.384766 L 43.105469 38.314453 L 43.394531 37.466797 L 42.888672 36.726562 L 41.994141 36.689453 z M 68.791016 36.734375 L 68.449219 36.822266 L 68.357422 36.863281 L 67.796875 37.5625 L 68.019531 38.429688 L 68.847656 38.771484 L 69.189453 38.683594 L 69.28125 38.640625 L 69.841797 37.943359 L 69.619141 37.076172 L 68.791016 36.734375 z M 11.597656 36.800781 L 10.824219 37.251953 L 10.722656 38.142578 L 10.900391 38.447266 L 10.964844 38.523438 L 11.789062 38.873047 L 12.5625 38.421875 L 12.666016 37.53125 L 12.488281 37.226562 L 12.423828 37.150391 L 11.597656 36.800781 z M 65 37 A 2 2 0 0 0 63 39 A 2 2 0 0 0 65 41 A 2 2 0 0 0 67 39 A 2 2 0 0 0 65 37 z M 59.867188 37.119141 L 58.988281 37.298828 L 58.607422 38.109375 L 59.027344 38.900391 L 59.345703 39.050781 L 59.441406 39.076172 L 60.320312 38.898438 L 60.703125 38.087891 L 60.283203 37.296875 L 59.962891 37.146484 L 59.867188 37.119141 z M 47.759766 38.390625 L 46.867188 38.472656 L 46.398438 39.236328 L 46.429688 39.587891 L 46.457031 39.683594 L 47.056641 40.349609 L 47.949219 40.267578 L 48.417969 39.503906 L 48.384766 39.152344 L 48.359375 39.056641 L 47.759766 38.390625 z M 28.863281 39.345703 L 28.25 39.998047 L 28.210938 40.349609 L 28.216797 40.449219 L 28.671875 41.222656 L 29.560547 41.320312 L 30.173828 40.667969 L 30.212891 40.316406 L 30.207031 40.216797 L 29.753906 39.443359 L 28.863281 39.345703 z M 39.068359 39.5625 L 38.777344 39.759766 L 38.707031 39.830078 L 38.416016 40.677734 L 38.921875 41.417969 L 39.816406 41.457031 L 40.107422 41.257812 L 40.179688 41.1875 L 40.46875 40.339844 L 39.964844 39.599609 L 39.068359 39.5625 z M 15 40 A 2 2 0 0 0 13 42 A 2 2 0 0 0 15 44 A 2 2 0 0 0 17 42 A 2 2 0 0 0 15 40 z M 63.029297 41.955078 L 62.134766 42.003906 L 61.863281 42.230469 L 61.798828 42.306641 L 61.591797 43.177734 L 62.166016 43.865234 L 63.0625 43.816406 L 63.332031 43.591797 L 63.396484 43.513672 L 63.603516 42.642578 L 63.029297 41.955078 z M 48.847656 42.34375 L 47.955078 42.425781 L 47.486328 43.189453 L 47.519531 43.541016 L 47.546875 43.636719 L 48.146484 44.302734 L 49.037109 44.220703 L 49.505859 43.457031 L 49.474609 43.105469 L 49.447266 43.009766 L 48.847656 42.34375 z M 66.552734 42.359375 L 65.65625 42.363281 L 65.123047 43.082031 L 65.125 43.433594 L 65.142578 43.533203 L 65.681641 44.248047 L 66.576172 44.246094 L 67.111328 43.527344 L 67.109375 43.173828 L 67.091797 43.076172 L 66.552734 42.359375 z M 36.142578 42.433594 L 35.851562 42.632812 L 35.78125 42.703125 L 35.490234 43.550781 L 35.996094 44.291016 L 36.890625 44.328125 L 37.181641 44.130859 L 37.253906 44.060547 L 37.542969 43.212891 L 37.039062 42.472656 L 36.142578 42.433594 z M 18.410156 42.638672 L 17.820312 43.314453 L 18.007812 44.189453 L 18.273438 44.421875 L 18.359375 44.472656 L 19.253906 44.541016 L 19.841797 43.867188 L 19.654297 42.990234 L 19.388672 42.757812 L 19.302734 42.707031 L 18.410156 42.638672 z M 29.132812 43.435547 L 28.521484 44.089844 L 28.482422 44.439453 L 28.488281 44.539062 L 28.941406 45.3125 L 29.832031 45.412109 L 30.445312 44.757812 L 30.484375 44.408203 L 30.476562 44.308594 L 30.023438 43.535156 L 29.132812 43.435547 z M 21.925781 44.748047 L 21.335938 45.423828 L 21.523438 46.298828 L 21.789062 46.53125 L 21.875 46.582031 L 22.769531 46.650391 L 23.357422 45.976562 L 23.169922 45.099609 L 22.904297 44.867188 L 22.818359 44.816406 L 21.925781 44.748047 z M 12.835938 44.824219 L 11.962891 45.03125 L 11.738281 45.302734 L 11.6875 45.388672 L 11.638672 46.283203 L 12.326172 46.857422 L 13.199219 46.652344 L 13.423828 46.380859 L 13.474609 46.294922 L 13.523438 45.400391 L 12.835938 44.824219 z M 60.394531 45.097656 L 59.5 45.146484 L 59.230469 45.371094 L 59.166016 45.449219 L 58.958984 46.320312 L 59.533203 47.007812 L 60.427734 46.958984 L 60.699219 46.732422 L 60.763672 46.65625 L 60.96875 45.785156 L 60.394531 45.097656 z M 33.21875 45.306641 L 32.925781 45.505859 L 32.855469 45.576172 L 32.564453 46.423828 L 33.070312 47.164062 L 33.964844 47.201172 L 34.255859 47.001953 L 34.328125 46.931641 L 34.619141 46.083984 L 34.113281 45.345703 L 33.21875 45.306641 z M 16.726562 46.248047 L 15.84375 46.398438 L 15.435547 47.195312 L 15.494141 47.542969 L 15.527344 47.636719 L 16.175781 48.255859 L 17.060547 48.105469 L 17.46875 47.308594 L 17.410156 46.960938 L 17.376953 46.867188 L 16.726562 46.248047 z M 49.9375 46.296875 L 49.044922 46.378906 L 48.576172 47.142578 L 48.609375 47.494141 L 48.634766 47.589844 L 49.234375 48.255859 L 50.126953 48.173828 L 50.595703 47.410156 L 50.5625 47.058594 L 50.537109 46.962891 L 49.9375 46.296875 z M 67.289062 46.392578 L 66.392578 46.396484 L 65.859375 47.115234 L 65.859375 47.46875 L 65.876953 47.566406 L 66.416016 48.283203 L 67.3125 48.279297 L 67.845703 47.560547 L 67.845703 47.207031 L 67.828125 47.109375 L 67.289062 46.392578 z M 25.441406 46.857422 L 24.851562 47.533203 L 25.041016 48.408203 L 25.306641 48.640625 L 25.390625 48.691406 L 26.285156 48.759766 L 26.875 48.085938 L 26.685547 47.208984 L 26.419922 46.976562 L 26.333984 46.925781 L 25.441406 46.857422 z M 30 48 A 2 2 0 0 0 28 50 A 2 2 0 0 0 30 52 A 2 2 0 0 0 32 50 A 2 2 0 0 0 30 48 z M 57.761719 48.240234 L 56.867188 48.289062 L 56.595703 48.513672 L 56.53125 48.591797 L 56.324219 49.462891 L 56.900391 50.150391 L 57.794922 50.101562 L 58.064453 49.875 L 58.128906 49.798828 L 58.335938 48.927734 L 57.761719 48.240234 z M 18.115234 50.107422 L 17.230469 50.255859 L 16.822266 51.054688 L 16.880859 51.402344 L 16.914062 51.496094 L 17.564453 52.113281 L 18.447266 51.964844 L 18.855469 51.166016 L 18.796875 50.818359 L 18.763672 50.724609 L 18.115234 50.107422 z M 51.025391 50.25 L 50.132812 50.332031 L 49.666016 51.095703 L 49.697266 51.445312 L 49.724609 51.542969 L 50.324219 52.208984 L 51.216797 52.126953 L 51.683594 51.363281 L 51.652344 51.011719 L 51.625 50.914062 L 51.025391 50.25 z M 35.150391 50.511719 L 34.269531 50.681641 L 33.880859 51.488281 L 34.292969 52.283203 L 34.609375 52.4375 L 34.707031 52.464844 L 35.585938 52.292969 L 35.976562 51.486328 L 35.564453 50.691406 L 35.246094 50.539062 L 35.150391 50.511719 z M 55.126953 51.380859 L 54.232422 51.429688 L 53.962891 51.65625 L 53.898438 51.732422 L 53.691406 52.605469 L 54.265625 53.292969 L 55.160156 53.244141 L 55.431641 53.017578 L 55.496094 52.941406 L 55.703125 52.070312 L 55.126953 51.380859 z M 39.097656 51.617188 L 38.21875 51.789062 L 37.828125 52.595703 L 38.240234 53.390625 L 38.558594 53.542969 L 38.654297 53.570312 L 39.533203 53.400391 L 39.923828 52.59375 L 39.511719 51.798828 L 39.193359 51.644531 L 39.097656 51.617188 z M 26.126953 51.666016 L 25.808594 51.816406 L 25.726562 51.875 L 25.308594 52.667969 L 25.693359 53.476562 L 26.572266 53.654297 L 26.890625 53.501953 L 26.970703 53.445312 L 27.390625 52.652344 L 27.005859 51.841797 L 26.126953 51.666016 z M 43.044922 52.724609 L 42.166016 52.894531 L 41.775391 53.701172 L 42.1875 54.496094 L 42.505859 54.650391 L 42.601562 54.677734 L 43.482422 54.507812 L 43.871094 53.701172 L 43.458984 52.904297 L 43.142578 52.751953 L 43.044922 52.724609 z M 32.365234 53.623047 L 31.542969 53.980469 L 31.339844 54.853516 L 31.480469 55.175781 L 31.535156 55.259766 L 32.314453 55.703125 L 33.136719 55.34375 L 33.339844 54.470703 L 33.199219 54.148438 L 33.142578 54.066406 L 32.365234 53.623047 z M 64.773438 53.775391 L 64.673828 53.78125 L 63.904297 54.238281 L 63.808594 55.128906 L 64.464844 55.740234 L 64.814453 55.777344 L 64.914062 55.769531 L 65.685547 55.3125 L 65.78125 54.421875 L 65.125 53.8125 L 64.773438 53.775391 z M 46.994141 53.832031 L 46.113281 54.001953 L 45.722656 54.808594 L 46.136719 55.603516 L 46.453125 55.757812 L 46.548828 55.783203 L 47.429688 55.613281 L 47.820312 54.806641 L 47.40625 54.011719 L 47.089844 53.857422 L 46.994141 53.832031 z M 16.234375 53.919922 L 15.337891 53.931641 L 14.810547 54.65625 L 15.076172 55.511719 L 15.361328 55.71875 L 15.451172 55.763672 L 16.347656 55.751953 L 16.875 55.025391 L 16.609375 54.169922 L 16.324219 53.962891 L 16.234375 53.919922 z M 52 54 A 2 2 0 0 0 50 56 A 2 2 0 0 0 52 58 A 2 2 0 0 0 54 56 A 2 2 0 0 0 52 54 z M 22.791016 54.048828 L 22.472656 54.199219 L 22.390625 54.257812 L 21.972656 55.050781 L 22.357422 55.859375 L 23.234375 56.037109 L 23.552734 55.884766 L 23.634766 55.828125 L 24.052734 55.035156 L 23.669922 54.226562 L 22.791016 54.048828 z M 60.683594 54.064453 L 60.583984 54.070312 L 59.814453 54.527344 L 59.71875 55.417969 L 60.375 56.027344 L 60.724609 56.066406 L 60.824219 56.058594 L 61.595703 55.601562 L 61.691406 54.710938 L 61.035156 54.101562 L 60.683594 54.064453 z M 56.59375 54.351562 L 56.494141 54.359375 L 55.724609 54.816406 L 55.628906 55.707031 L 56.285156 56.316406 L 56.634766 56.355469 L 56.734375 56.347656 L 57.505859 55.890625 L 57.601562 55 L 56.945312 54.390625 L 56.59375 54.351562 z M 20 55 A 2 2 0 0 0 18 57 A 2 2 0 0 0 20 59 A 2 2 0 0 0 22 57 A 2 2 0 0 0 20 55 z M 34.642578 57.03125 L 33.820312 57.390625 L 33.617188 58.261719 L 33.757812 58.585938 L 33.814453 58.667969 L 34.591797 59.111328 L 35.414062 58.753906 L 35.617188 57.880859 L 35.476562 57.558594 L 35.421875 57.474609 L 34.642578 57.03125 z M 23.892578 58.193359 L 22.996094 58.238281 L 22.498047 58.982422 L 22.794922 59.826172 L 23.085938 60.023438 L 23.177734 60.064453 L 24.072266 60.019531 L 24.572266 59.275391 L 24.275391 58.429688 L 23.982422 58.232422 L 23.892578 58.193359 z M 47.505859 58.761719 L 47.197266 58.931641 L 47.119141 58.996094 L 46.753906 59.8125 L 47.189453 60.595703 L 48.076172 60.716797 L 48.384766 60.544922 L 48.462891 60.482422 L 48.828125 59.664062 L 48.392578 58.880859 L 47.505859 58.761719 z M 53.5625 59.423828 L 52.669922 59.501953 L 52.199219 60.265625 L 52.230469 60.615234 L 52.255859 60.712891 L 52.853516 61.380859 L 53.746094 61.300781 L 54.216797 60.539062 L 54.185547 60.1875 L 54.160156 60.091797 L 53.5625 59.423828 z M 27.644531 59.84375 L 26.75 59.888672 L 26.25 60.632812 L 26.546875 61.478516 L 26.839844 61.673828 L 26.931641 61.714844 L 27.826172 61.669922 L 28.326172 60.925781 L 28.029297 60.080078 L 27.736328 59.882812 L 27.644531 59.84375 z M 20.085938 60.287109 L 19.482422 60.951172 L 19.447266 61.300781 L 19.457031 61.400391 L 19.919922 62.167969 L 20.8125 62.253906 L 21.416016 61.591797 L 21.449219 61.240234 L 21.441406 61.140625 L 20.976562 60.375 L 20.085938 60.287109 z M 36.919922 60.441406 L 36.099609 60.798828 L 35.894531 61.671875 L 36.035156 61.994141 L 36.091797 62.078125 L 36.869141 62.521484 L 37.691406 62.162109 L 37.894531 61.289062 L 37.753906 60.966797 L 37.699219 60.884766 L 36.919922 60.441406 z M 44.330078 61.353516 L 44.021484 61.525391 L 43.943359 61.589844 L 43.578125 62.40625 L 44.013672 63.189453 L 44.900391 63.308594 L 45.208984 63.138672 L 45.287109 63.074219 L 45.654297 62.257812 L 45.21875 61.474609 L 44.330078 61.353516 z M 31.398438 61.494141 L 30.503906 61.539062 L 30.003906 62.283203 L 30.300781 63.128906 L 30.59375 63.324219 L 30.683594 63.365234 L 31.580078 63.320312 L 32.078125 62.576172 L 31.78125 61.730469 L 31.490234 61.533203 L 31.398438 61.494141 z M 35.150391 63.144531 L 34.255859 63.189453 L 33.755859 63.933594 L 34.052734 64.779297 L 34.345703 64.974609 L 34.4375 65.015625 L 35.332031 64.970703 L 35.832031 64.226562 L 35.535156 63.380859 L 35.242188 63.185547 L 35.150391 63.144531 z M 54.636719 63.380859 L 53.744141 63.458984 L 53.273438 64.220703 L 53.304688 64.572266 L 53.330078 64.669922 L 53.927734 65.337891 L 54.820312 65.257812 L 55.291016 64.496094 L 55.261719 64.144531 L 55.234375 64.048828 L 54.636719 63.380859 z M 40 64 A 2 2 0 0 0 38 66 A 2 2 0 0 0 40 68 A 2 2 0 0 0 42 66 A 2 2 0 0 0 40 64 z M 44.695312 65.373047 L 43.857422 65.6875 L 43.609375 66.548828 L 44.148438 67.263672 L 44.488281 67.361328 L 44.587891 67.371094 L 45.425781 67.056641 L 45.673828 66.195312 L 45.134766 65.480469 L 44.794922 65.382812 L 44.695312 65.373047 z M 30.257812 65.734375 L 29.423828 66.060547 L 29.185547 66.923828 L 29.734375 67.632812 L 30.074219 67.726562 L 30.173828 67.734375 L 31.007812 67.410156 L 31.246094 66.546875 L 30.697266 65.837891 L 30.357422 65.744141 L 30.257812 65.734375 z M 48.773438 65.798828 L 47.935547 66.115234 L 47.685547 66.976562 L 48.226562 67.691406 L 48.566406 67.789062 L 48.664062 67.798828 L 49.503906 67.482422 L 49.751953 66.623047 L 49.210938 65.908203 L 48.873047 65.810547 L 48.773438 65.798828 z M 34.341797 66.113281 L 33.505859 66.439453 L 33.267578 67.302734 L 33.816406 68.011719 L 34.15625 68.105469 L 34.255859 68.115234 L 35.089844 67.789062 L 35.330078 66.925781 L 34.78125 66.216797 L 34.441406 66.123047 L 34.341797 66.113281 z"/>
</svg>
